<svg xmlns="http://www.w3.org/2000/svg" xmlns:xlink="http://www.w3.org/1999/xlink" xmlns:svgjs="http://svgjs.com/svgjs" id="SvgjsSvg1001" version="1.1" viewBox="0 103.1 288 81.8"><defs id="SvgjsDefs1002"/><g id="SvgjsG1008"><svg xmlns="http://www.w3.org/2000/svg" version="1.0" viewBox="208.52 310.14 883.93 251.06" width="288" height="288"><g transform="matrix(.1 0 0 -.1 0 870)" fill="#18bc9c" class="color000 svgShape"><path d="M2640 5590 c-174 -21 -265 -63 -371 -169 -84 -84 -118 -137 -156 -238 l-24 -68 -3 -990 c-2 -545 0 -1001 3 -1014 l7 -23 974 2 c1006 1 1038 2 1140 42 202 77 345 262 371 477 5 41 8 502 7 1023 -3 831 -5 950 -18 958 -18 12 -1834 11 -1930 0z m606 -421 c6 -5 21 -42 33 -82 24 -80 68 -144 93 -135 20 8 68 94 68 122 1 40 36 103 63 110 27 6 71 -6 81 -22 14 -23 39 -183 39 -252 0 -63 -5 -85 -31 -143 -38 -83 -39 -96 -8 -146 57 -90 96 -218 96 -316 0 -39 -7 -125 -15 -190 -19 -156 -19 -213 5 -310 24 -103 37 -137 80 -209 64 -108 63 -105 48 -123 -10 -13 -27 -15 -93 -10 -128 9 -179 40 -241 143 -10 17 -15 14 -65 -29 -101 -89 -211 -126 -375 -127 -84 0 -106 3 -124 18 l-22 18 49 75 c66 98 87 148 109 259 16 84 16 103 4 189 -7 53 -15 135 -17 182 -8 145 42 326 121 442 33 48 32 55 -3 122 -44 82 -57 143 -43 207 6 29 14 76 17 103 9 68 24 105 49 115 23 10 64 4 82 -11z" fill="#18bc9c" class="color000 svgShape"/><path d="M3176 5039c-4-39-12-83-17-98-11-27 4-102 25-131 22-30 46-78 46-94 0-26 35-36 135-36 108 0 130 7 140 47 3 16 18 51 32 78 16 33 25 67 25 101 1 55-31 204-43 204-5 0-11-17-14-37-8-48-38-114-67-149-35-41-96-76-126-72-24 3-27 7-24 34 2 21-6 44-22 69-14 20-28 46-31 58-11 39-38 97-45 97-4 0-11-32-14-71zM3228 4621c-29-11-61-63-101-166-9-22-23-84-32-137-14-88-14-108 0-208 20-149 19-268-4-355-20-73-72-188-90-200-6-3-11-15-11-26 0-16 7-19 54-19 152 0 278 60 369 175l32 39 0 231c0 230 0 230 22 233 30 4 31 0 43-288 12-264 14-285 39-314 23-26 86-56 119-56 36 0 46 9 29 29-20 24-73 157-92 232-19 75-17 252 5 418 11 83 10 104-5 180-19 93-63 196-96 223-18 15-41 18-142 17-67-1-130-4-139-8zM5425 5184c-11-3-30-7-42-9-38-8-132-103-143-145-22-81-11-182 25-240 48-76 79-94 364-213 135-56 172-107 157-214-13-94-79-143-196-143-81 0-124 17-182 74-74 72-127 172-143 269-4 26-11 37-23 37-16 0-17-16-14-182 1-101 5-193 8-206 7-33 28-22 35 19 10 63 28 73 70 41 50-39 126-76 183-88 103-22 220 10 278 74 51 57 68 105 68 187 0 87-18 133-74 187-40 39-64 51-216 113-181 73-210 87-236 117-69 83-36 223 65 268 54 25 82 25 146 3 90-32 191-159 225-283 3-14 13-25 21-25 12 0 13 26 11 160-2 88-8 164-13 169-5 5-10 8-11 5-2-2-10-17-18-34-18-34-44-43-68-22-48 42-134 78-195 82-34 2-71 2-82-1zM8430 5150c0-14 7-20 24-20 59 0 56 27 56-449 0-327-3-440-12-449-7-7-27-12-46-12-22 0-32-4-30-12 5-14 222-24 266-13 31 8 18 25-18 25-60 0-60-1-60 485 0 330-3 444-12 453-7 7-43 12-90 12-71 0-78-2-78-20zM6555 4983c-16-89-72-163-122-163-41 0-25-34 17-38 19-2 38-9 42-15 4-7 8-118 8-248l0-236 29-41c34-46 56-56 125-54 41 1 54 6 82 33 25 24 34 42 34 66 0 40-15 43-28 5-11-33-60-57-97-48-49 12-55 45-55 285 0 121 3 226 6 235 5 12 21 16 73 16 123 0 125 37 1 42l-75 3-3 98c-2 73-6 97-16 97-8 0-17-16-21-37zM7275 4810c-6-10 0-14 47-24 44-10 54-30 144-291 25-71 49-143 54-160 4-16 20-61 34-99 31-81 32-113 7-184-26-76-74-132-112-132l-31 0 7 51c6 44 4 53-16 75-27 29-46 30-78 3-18-14-24-30-24-59 0-82 69-130 156-109 69 16 111 72 147 194 5 17 16 53 24 80 19 64 35 112 52 153 8 18 14 41 14 52 0 11 6 34 14 52 7 18 21 60 31 93 9 33 23 75 31 93 8 18 14 39 14 46 0 23 38 101 58 119 10 9 33 20 51 23 17 4 30 12 28 18-4 14-216 21-229 8-6-6 5-18 26-30 51-30 50-63-6-227-5-16-13-46-17-65-4-19-13-45-19-57-7-12-12-32-12-45 0-25-25-68-40-68-5 0-12 12-16 28-6 28-64 207-82 252-53 136-52 173 4 186 20 5 35 14 35 19-1 14-287 19-296 5zM9205 4810c-3-5 2-13 12-16 65-20 59 0 65-251 5-207 8-234 27-270 35-71 75-88 187-84 34 1 50 9 90 46 26 25 51 45 56 45 4 0 8-15 8-34 0-48 17-57 102-54 73 3 92 16 41 30-14 4-30 13-34 20-5 7-9 135-9 283 0 197-3 274-12 283-7 7-43 12-90 12-63 0-78-3-78-15 0-10 10-15 28-15 50 0 52-10 52-210 0-214-10-258-74-321-32-32-45-39-78-39-50 0-74 13-95 53-15 27-19 69-23 287l-5 255-82 3c-49 2-84-1-88-8zM10350 4807c0-7 14-17 32-22 24-7 43-27 73-72 143-220 145-226 95-296-17-23-51-70-76-105-33-47-57-69-90-83-24-11-42-24-39-30 9-13 192-12 201 2 3 6-6 23-20 38l-27 28 20 34c12 19 24 41 28 49 11 25 64 90 73 90 12 0 110-164 110-184 0-8-14-23-30-31-17-9-28-20-25-25 8-13 242-13 249-1 3 5-9 18-27 29-31 18-53 48-159 212-61 95-62 97-41 130 50 80 113 168 136 189 14 13 41 26 59 30 65 13 27 26-79 26-76 0-108-4-110-12-3-7 2-13 10-13 21 0 50-37 43-56-12-32-90-144-101-144-16 0-108 159-101 176 3 8 17 19 31 24 52 20 13 30-111 30-95 0-124-3-124-13zM6955 3580c-7-12 2-30 16-30 5 0 9 9 9 20 0 21-15 27-25 10zM7952 3568c6-18 28-21 28-4 0 9-7 16-16 16-9 0-14-5-12-12zM9460 3573c0-5 5-15 10-23 7-11 12-12 21-3 6 6 8 16 5 22-8 12-36 15-36 4zM7945 3531c-39-8-34-26 8-27 17-1 39-4 48-8 10-4 20-2 24 4 15 24-31 41-80 31zM6521 3521c-10-7-12-30-9-100 4-79 17-126 32-110 2 2 5 51 7 108 4 104-1 120-30 102zM6920 3516c0-21 21-31 30-15 5 7 6 17 4 21-9 14-34 9-34-6zM6980 3516c0-10 9-16 21-16 24 0 21 23-4 28-10 2-17-3-17-12zM7220 3419c0-165 22-199 122-186 57 8 87 40 94 102 7 63-8 105-37 105-18 0-20-4-14-22 3-13 9-44 12-69 5-40 2-48-18-63-30-20-83-21-100 0-8 10-14 51-16 107-5 114-9 137-28 137-12 0-15-20-15-111zM9426 3521c-8-12 21-34 34-26 17 11 11 35-9 35-11 0-22-4-25-9zM9500 3509c0-24 23-21 28 4 2 10-3 17-12 17-10 0-16-9-16-21zM8851 3474c-24-31-27-72-7-99 10-14 31-21 72-25 64-6 88-26 68-57-9-15-28-19-104-21-54-2-97 2-105 8-7 6-15 28-19 50-4 26-12 40-21 40-25 0-20-95 5-120 20-20 31-20 358-19 246 2 344 6 362 15 21 10 29 10 45-2 40-30 103-7 131 47 29 56 9 149-32 149-13 0-14-8-8-42 11-66 7-91-22-116-24-21-28-21-48-9-17 12-22 27-26 83-4 53-9 70-21 72-20 4-29-25-29-90 0-29-6-53-16-62-20-21-26-20-57 4-22 17-27 30-29 78-4 73-22 74-26 2-4-65-22-90-67-90-46 0-55 15-55 98 0 65-2 73-17 70-15-3-19-16-21-73-2-38-8-75-14-82-13-16-90-17-106-1-7 7-12 21-12 33 0 42-26 62-86 67-52 4-74 17-74 43 0 28 22 40 81 45 37 3 64 10 67 18 3 9-16 12-71 12-70 0-77-2-96-26zM6957 3433c-4-3-7-33-7-65 0-75-12-98-50-98-36 0-39 4-46 79-6 49-10 61-25 61-15 0-18-13-21-111-3-107-4-112-31-135-36-31-48-30-86 5-36 33-41 75-16 135 14 33 14 37-1 43-31 12-54-32-54-101 1-70 14-92 74-120 36-17 40-17 83-1 37 14 49 25 65 61 18 41 22 44 58 44 21 0 42 5 45 10 3 6 17 10 30 10 13 0 27-4 30-10 18-30 117 11 129 53 17 64-1 147-32 147-28 0-33-10-17-34 24-33 19-99-8-124-29-28-41-28-67 0-15 17-20 35-20 79 0 53-17 89-33 72zM8087 3408c14-58 7-111-17-130-28-23-35-23-60 2-16 16-20 33-20 79 0 60-12 83-33 62-5-5-13-41-16-78l-6-68-34-3c-43-4-51 8-51 80 0 55-11 80-26 57-4-7-9-55-11-108-4-106-19-138-67-156-59-20-105 79-73 157 16 38 14 48-10 48-21 0-56-86-48-118 14-60 30-81 77-103l49-23 42 21c39 19 56 40 71 86 3 10 15 17 32 17 15 0 44 5 66 12 29 9 41 9 50 0 17-17 70-14 94 6 27 21 54 73 54 102 0 37-31 90-52 90-17 0-19-4-11-32zM8227 3422c-12-13-17-37-17-80 0-52 4-65 25-87 18-17 37-25 60-25 32 0 35-3 35-29 0-22-6-30-25-35-30-8-32-22-5-31 30-9 66 18 80 60 10 30 16 35 41 35 37 0 83 23 103 52 18 26 21 109 6 139-6 10-20 19-32 19-17 0-19-4-13-22 4-13 10-43 12-68 5-54-14-78-67-82l-34-3-11 71c-6 40-17 79-24 88-20 24-113 22-134-2zm98-82c0-59-2-65-22-68-41-6-69 70-42 119 7 14 19 19 37 17 26-3 27-5 27-68zM6515 3250c-3-5-4-10-1-10 2 0 11-3 20-6 11-4 16-1 16 10 0 18-25 22-35 6zM7370 3170c0-11 7-20 15-20 8 0 15 9 15 20 0 11-7 20-15 20-8 0-15-9-15-20zM8440 3179c0-16 40-79 50-79 18 0 22 24 7 35-10 7-17 22-17 34 0 14-6 21-20 21-11 0-20-5-20-11zM8510 3164c0-31 23-28 28 4 2 15-2 22-12 22-11 0-16-9-16-26zM9137 3183c-14-13-6-33 13-33 13 0 20 7 20 20 0 19-20 27-33 13zM9202 3168c2-13 8-23 13-23 6 0 11 10 13 23 2 15-2 22-13 22-11 0-15-7-13-22z" fill="#18bc9c" class="color000 svgShape"/></g></svg></g></svg>